<mxfile host="app.diagrams.net" agent="Mozilla/5.0 (Windows NT 10.0; Win64; x64) AppleWebKit/537.36 (KHTML, like Gecko) Chrome/132.0.0.0 Safari/537.36 Edg/132.0.0.0" version="26.0.6">
  <diagram name="Страница — 1" id="h27PTQuUdZ7xQmGwTFx-">
    <mxGraphModel dx="2277" dy="5961" grid="1" gridSize="10" guides="1" tooltips="1" connect="1" arrows="1" fold="1" page="1" pageScale="1" pageWidth="3300" pageHeight="4681" math="0" shadow="0">
      <root>
        <mxCell id="0" />
        <mxCell id="1" parent="0" />
        <mxCell id="VIOyXhXL2G6A2-tZGu9I-2" value="&lt;p style=&quot;margin:0px;margin-top:4px;text-align:center;&quot;&gt;&lt;b&gt;Class Organization&lt;/b&gt;&lt;/p&gt;&lt;hr size=&quot;1&quot; style=&quot;border-style:solid;&quot;&gt;&lt;div style=&quot;height:2px;&quot;&gt;&amp;nbsp;&lt;/div&gt;" style="verticalAlign=top;align=left;overflow=fill;html=1;whiteSpace=wrap;" vertex="1" parent="1">
          <mxGeometry x="5" y="-40" width="1405" height="1120" as="geometry" />
        </mxCell>
        <mxCell id="VIOyXhXL2G6A2-tZGu9I-4" value="&lt;p style=&quot;margin:0px;margin-top:4px;text-align:center;&quot;&gt;&lt;b&gt;Person&lt;/b&gt;&lt;/p&gt;&lt;hr size=&quot;1&quot; style=&quot;border-style:solid;&quot;&gt;&lt;div style=&quot;height:2px;&quot;&gt;&lt;/div&gt;" style="verticalAlign=top;align=left;overflow=fill;html=1;whiteSpace=wrap;" vertex="1" parent="1">
          <mxGeometry x="120" y="70" width="170" height="170" as="geometry" />
        </mxCell>
        <mxCell id="VIOyXhXL2G6A2-tZGu9I-5" value="name: Name" style="text;html=1;align=center;verticalAlign=middle;resizable=0;points=[];autosize=1;strokeColor=none;fillColor=none;" vertex="1" parent="1">
          <mxGeometry x="110" y="100" width="90" height="30" as="geometry" />
        </mxCell>
        <mxCell id="VIOyXhXL2G6A2-tZGu9I-6" value="title: String" style="text;html=1;align=center;verticalAlign=middle;resizable=0;points=[];autosize=1;strokeColor=none;fillColor=none;" vertex="1" parent="1">
          <mxGeometry x="110" y="120" width="80" height="30" as="geometry" />
        </mxCell>
        <mxCell id="VIOyXhXL2G6A2-tZGu9I-7" value="gender: Gender" style="text;html=1;align=center;verticalAlign=middle;resizable=0;points=[];autosize=1;strokeColor=none;fillColor=none;" vertex="1" parent="1">
          <mxGeometry x="110" y="140" width="110" height="30" as="geometry" />
        </mxCell>
        <mxCell id="VIOyXhXL2G6A2-tZGu9I-8" value="birth_date: Date" style="text;html=1;align=center;verticalAlign=middle;resizable=0;points=[];autosize=1;strokeColor=none;fillColor=none;" vertex="1" parent="1">
          <mxGeometry x="110" y="160" width="110" height="30" as="geometry" />
        </mxCell>
        <mxCell id="VIOyXhXL2G6A2-tZGu9I-9" value="home_address: Address" style="text;html=1;align=center;verticalAlign=middle;resizable=0;points=[];autosize=1;strokeColor=none;fillColor=none;" vertex="1" parent="1">
          <mxGeometry x="110" y="180" width="150" height="30" as="geometry" />
        </mxCell>
        <mxCell id="VIOyXhXL2G6A2-tZGu9I-17" value="phone: Phone" style="text;html=1;align=center;verticalAlign=middle;resizable=0;points=[];autosize=1;strokeColor=none;fillColor=none;" vertex="1" parent="1">
          <mxGeometry x="110" y="200" width="100" height="30" as="geometry" />
        </mxCell>
        <mxCell id="VIOyXhXL2G6A2-tZGu9I-18" value="" style="endArrow=none;html=1;rounded=0;" edge="1" parent="1">
          <mxGeometry width="50" height="50" relative="1" as="geometry">
            <mxPoint x="290" y="160" as="sourcePoint" />
            <mxPoint x="460" y="160" as="targetPoint" />
          </mxGeometry>
        </mxCell>
        <mxCell id="VIOyXhXL2G6A2-tZGu9I-20" value="&lt;p style=&quot;margin:0px;margin-top:4px;text-align:center;&quot;&gt;&lt;b&gt;Hospital&lt;/b&gt;&lt;/p&gt;&lt;hr size=&quot;1&quot; style=&quot;border-style:solid;&quot;&gt;&lt;div style=&quot;height:2px;&quot;&gt;&lt;/div&gt;" style="verticalAlign=top;align=left;overflow=fill;html=1;whiteSpace=wrap;" vertex="1" parent="1">
          <mxGeometry x="460" y="80" width="140" height="110" as="geometry" />
        </mxCell>
        <mxCell id="VIOyXhXL2G6A2-tZGu9I-21" value="name: String{id}" style="text;html=1;align=center;verticalAlign=middle;resizable=0;points=[];autosize=1;strokeColor=none;fillColor=none;" vertex="1" parent="1">
          <mxGeometry x="450" y="100" width="110" height="30" as="geometry" />
        </mxCell>
        <mxCell id="VIOyXhXL2G6A2-tZGu9I-23" value="address: Address" style="text;html=1;align=center;verticalAlign=middle;resizable=0;points=[];autosize=1;strokeColor=none;fillColor=none;" vertex="1" parent="1">
          <mxGeometry x="450" y="120" width="120" height="30" as="geometry" />
        </mxCell>
        <mxCell id="VIOyXhXL2G6A2-tZGu9I-24" value="phone: Phone" style="text;html=1;align=center;verticalAlign=middle;resizable=0;points=[];autosize=1;strokeColor=none;fillColor=none;" vertex="1" parent="1">
          <mxGeometry x="450" y="140" width="100" height="30" as="geometry" />
        </mxCell>
        <mxCell id="VIOyXhXL2G6A2-tZGu9I-25" value="" style="shape=waypoint;sketch=0;fillStyle=solid;size=6;pointerEvents=1;points=[];fillColor=none;resizable=0;rotatable=0;perimeter=centerPerimeter;snapToPoint=1;" vertex="1" parent="1">
          <mxGeometry x="290" y="170" width="20" height="20" as="geometry" />
        </mxCell>
        <mxCell id="VIOyXhXL2G6A2-tZGu9I-26" value="" style="shape=waypoint;sketch=0;fillStyle=solid;size=6;pointerEvents=1;points=[];fillColor=none;resizable=0;rotatable=0;perimeter=centerPerimeter;snapToPoint=1;" vertex="1" parent="1">
          <mxGeometry x="430" y="170" width="20" height="20" as="geometry" />
        </mxCell>
        <mxCell id="VIOyXhXL2G6A2-tZGu9I-29" value="&lt;p style=&quot;margin:0px;margin-top:4px;text-align:center;&quot;&gt;&lt;b&gt;Patient&lt;/b&gt;&lt;/p&gt;&lt;hr size=&quot;1&quot; style=&quot;border-style:solid;&quot;&gt;&lt;div style=&quot;height:2px;&quot;&gt;&lt;/div&gt;" style="verticalAlign=top;align=left;overflow=fill;html=1;whiteSpace=wrap;" vertex="1" parent="1">
          <mxGeometry x="115" y="300" width="145" height="150" as="geometry" />
        </mxCell>
        <mxCell id="VIOyXhXL2G6A2-tZGu9I-30" value="gender: Gender&lt;div&gt;accepted: Date&lt;/div&gt;&lt;div&gt;sickness: History&lt;/div&gt;&lt;div&gt;prescriptions: String[&quot;]&lt;/div&gt;&lt;div&gt;allergies: String[&quot;]&lt;/div&gt;&lt;div&gt;special_reqs: String[&quot;]&lt;/div&gt;" style="text;html=1;align=center;verticalAlign=middle;resizable=0;points=[];autosize=1;strokeColor=none;fillColor=none;" vertex="1" parent="1">
          <mxGeometry x="110" y="330" width="140" height="100" as="geometry" />
        </mxCell>
        <mxCell id="VIOyXhXL2G6A2-tZGu9I-33" value="Operations&lt;div&gt;Staff&lt;/div&gt;" style="rounded=0;whiteSpace=wrap;html=1;" vertex="1" parent="1">
          <mxGeometry x="260" y="500" width="110" height="60" as="geometry" />
        </mxCell>
        <mxCell id="VIOyXhXL2G6A2-tZGu9I-34" value="&lt;p style=&quot;margin:0px;margin-top:4px;text-align:center;&quot;&gt;&lt;b&gt;Doctor&lt;/b&gt;&lt;/p&gt;&lt;hr size=&quot;1&quot; style=&quot;border-style:solid;&quot;&gt;&lt;div style=&quot;height:2px;&quot;&gt;&lt;/div&gt;" style="verticalAlign=top;align=left;overflow=fill;html=1;whiteSpace=wrap;" vertex="1" parent="1">
          <mxGeometry x="130" y="625" width="140" height="90" as="geometry" />
        </mxCell>
        <mxCell id="VIOyXhXL2G6A2-tZGu9I-35" value="specialty: String[&quot;]&lt;div&gt;locations: String[&quot;]&lt;/div&gt;" style="text;html=1;align=center;verticalAlign=middle;resizable=0;points=[];autosize=1;strokeColor=none;fillColor=none;" vertex="1" parent="1">
          <mxGeometry x="120" y="650" width="120" height="40" as="geometry" />
        </mxCell>
        <mxCell id="VIOyXhXL2G6A2-tZGu9I-36" value="Nurse" style="rounded=0;whiteSpace=wrap;html=1;" vertex="1" parent="1">
          <mxGeometry x="380" y="650" width="120" height="60" as="geometry" />
        </mxCell>
        <mxCell id="VIOyXhXL2G6A2-tZGu9I-37" value="Surgeon" style="rounded=0;whiteSpace=wrap;html=1;" vertex="1" parent="1">
          <mxGeometry x="140" y="770" width="120" height="60" as="geometry" />
        </mxCell>
        <mxCell id="VIOyXhXL2G6A2-tZGu9I-40" value="" style="endArrow=block;endSize=16;endFill=0;html=1;rounded=0;exitX=0.143;exitY=0.022;exitDx=0;exitDy=0;exitPerimeter=0;" edge="1" parent="1" source="VIOyXhXL2G6A2-tZGu9I-29" target="VIOyXhXL2G6A2-tZGu9I-4">
          <mxGeometry width="160" relative="1" as="geometry">
            <mxPoint x="150" y="270" as="sourcePoint" />
            <mxPoint x="310" y="270" as="targetPoint" />
          </mxGeometry>
        </mxCell>
        <mxCell id="VIOyXhXL2G6A2-tZGu9I-41" value="" style="endArrow=block;endSize=16;endFill=0;html=1;rounded=0;entryX=0.25;entryY=1;entryDx=0;entryDy=0;exitX=0.139;exitY=-0.008;exitDx=0;exitDy=0;exitPerimeter=0;" edge="1" parent="1" source="VIOyXhXL2G6A2-tZGu9I-34" target="VIOyXhXL2G6A2-tZGu9I-33">
          <mxGeometry width="160" relative="1" as="geometry">
            <mxPoint x="240" y="630" as="sourcePoint" />
            <mxPoint x="400" y="630" as="targetPoint" />
          </mxGeometry>
        </mxCell>
        <mxCell id="VIOyXhXL2G6A2-tZGu9I-42" value="" style="endArrow=block;endSize=16;endFill=0;html=1;rounded=0;exitX=0.361;exitY=0.075;exitDx=0;exitDy=0;exitPerimeter=0;entryX=0.912;entryY=0.963;entryDx=0;entryDy=0;entryPerimeter=0;" edge="1" parent="1" source="VIOyXhXL2G6A2-tZGu9I-36" target="VIOyXhXL2G6A2-tZGu9I-33">
          <mxGeometry width="160" relative="1" as="geometry">
            <mxPoint x="480" y="580" as="sourcePoint" />
            <mxPoint x="640" y="580" as="targetPoint" />
          </mxGeometry>
        </mxCell>
        <mxCell id="VIOyXhXL2G6A2-tZGu9I-44" value="" style="endArrow=block;endSize=16;endFill=0;html=1;rounded=0;exitX=0.5;exitY=0;exitDx=0;exitDy=0;entryX=0.345;entryY=1.038;entryDx=0;entryDy=0;entryPerimeter=0;" edge="1" parent="1" source="VIOyXhXL2G6A2-tZGu9I-33" target="VIOyXhXL2G6A2-tZGu9I-45">
          <mxGeometry width="160" relative="1" as="geometry">
            <mxPoint x="350" y="480" as="sourcePoint" />
            <mxPoint x="510" y="480" as="targetPoint" />
          </mxGeometry>
        </mxCell>
        <mxCell id="VIOyXhXL2G6A2-tZGu9I-45" value="&lt;p style=&quot;margin:0px;margin-top:4px;text-align:center;&quot;&gt;&lt;b&gt;Staff&lt;/b&gt;&lt;/p&gt;&lt;hr size=&quot;1&quot; style=&quot;border-style:solid;&quot;&gt;&lt;div style=&quot;height:2px;&quot;&gt;&lt;br&gt;&lt;/div&gt;" style="verticalAlign=top;align=left;overflow=fill;html=1;whiteSpace=wrap;" vertex="1" parent="1">
          <mxGeometry x="460" y="340" width="140" height="115" as="geometry" />
        </mxCell>
        <mxCell id="VIOyXhXL2G6A2-tZGu9I-46" value="joined:Date&lt;div&gt;education: String[&quot;]&lt;/div&gt;&lt;div&gt;certification: String[&quot;]&lt;/div&gt;&lt;div&gt;languages: Srting[&quot;]&lt;/div&gt;" style="text;html=1;align=center;verticalAlign=middle;resizable=0;points=[];autosize=1;strokeColor=none;fillColor=none;" vertex="1" parent="1">
          <mxGeometry x="450" y="362.5" width="130" height="70" as="geometry" />
        </mxCell>
        <mxCell id="VIOyXhXL2G6A2-tZGu9I-47" value="Administrative&lt;div&gt;Staff&lt;/div&gt;" style="rounded=0;whiteSpace=wrap;html=1;" vertex="1" parent="1">
          <mxGeometry x="640" y="520" width="120" height="60" as="geometry" />
        </mxCell>
        <mxCell id="VIOyXhXL2G6A2-tZGu9I-49" value="" style="endArrow=block;endSize=16;endFill=0;html=1;rounded=0;exitX=0.5;exitY=0;exitDx=0;exitDy=0;entryX=0.75;entryY=1;entryDx=0;entryDy=0;" edge="1" parent="1" source="VIOyXhXL2G6A2-tZGu9I-47" target="VIOyXhXL2G6A2-tZGu9I-45">
          <mxGeometry width="160" relative="1" as="geometry">
            <mxPoint x="690" y="460" as="sourcePoint" />
            <mxPoint x="850" y="460" as="targetPoint" />
          </mxGeometry>
        </mxCell>
        <mxCell id="VIOyXhXL2G6A2-tZGu9I-51" value="Front Desk&lt;div&gt;Staff&lt;/div&gt;" style="rounded=0;whiteSpace=wrap;html=1;" vertex="1" parent="1">
          <mxGeometry x="640" y="650" width="120" height="60" as="geometry" />
        </mxCell>
        <mxCell id="VIOyXhXL2G6A2-tZGu9I-52" value="" style="endArrow=block;endSize=16;endFill=0;html=1;rounded=0;exitX=0.5;exitY=0;exitDx=0;exitDy=0;entryX=0.5;entryY=1;entryDx=0;entryDy=0;" edge="1" parent="1" source="VIOyXhXL2G6A2-tZGu9I-51" target="VIOyXhXL2G6A2-tZGu9I-47">
          <mxGeometry width="160" relative="1" as="geometry">
            <mxPoint x="700" y="580" as="sourcePoint" />
            <mxPoint x="860" y="580" as="targetPoint" />
          </mxGeometry>
        </mxCell>
        <mxCell id="VIOyXhXL2G6A2-tZGu9I-53" value="Receptionist" style="rounded=0;whiteSpace=wrap;html=1;" vertex="1" parent="1">
          <mxGeometry x="640" y="780" width="120" height="60" as="geometry" />
        </mxCell>
        <mxCell id="VIOyXhXL2G6A2-tZGu9I-54" value="" style="endArrow=block;endSize=16;endFill=0;html=1;rounded=0;exitX=0.5;exitY=0;exitDx=0;exitDy=0;entryX=0.5;entryY=1;entryDx=0;entryDy=0;" edge="1" parent="1" source="VIOyXhXL2G6A2-tZGu9I-53" target="VIOyXhXL2G6A2-tZGu9I-51">
          <mxGeometry width="160" relative="1" as="geometry">
            <mxPoint x="620" y="500" as="sourcePoint" />
            <mxPoint x="780" y="500" as="targetPoint" />
          </mxGeometry>
        </mxCell>
        <mxCell id="VIOyXhXL2G6A2-tZGu9I-55" value="Technician" style="rounded=0;whiteSpace=wrap;html=1;" vertex="1" parent="1">
          <mxGeometry x="840" y="640" width="120" height="60" as="geometry" />
        </mxCell>
        <mxCell id="VIOyXhXL2G6A2-tZGu9I-56" value="" style="endArrow=block;endSize=16;endFill=0;html=1;rounded=0;entryX=0.167;entryY=1;entryDx=0;entryDy=0;entryPerimeter=0;" edge="1" parent="1" target="VIOyXhXL2G6A2-tZGu9I-57">
          <mxGeometry width="160" relative="1" as="geometry">
            <mxPoint x="890" y="640" as="sourcePoint" />
            <mxPoint x="1030" y="610" as="targetPoint" />
          </mxGeometry>
        </mxCell>
        <mxCell id="VIOyXhXL2G6A2-tZGu9I-57" value="Technical&lt;div&gt;Staff&lt;/div&gt;" style="rounded=0;whiteSpace=wrap;html=1;" vertex="1" parent="1">
          <mxGeometry x="990" y="520" width="120" height="60" as="geometry" />
        </mxCell>
        <mxCell id="VIOyXhXL2G6A2-tZGu9I-58" value="Technologist" style="rounded=0;whiteSpace=wrap;html=1;" vertex="1" parent="1">
          <mxGeometry x="1110" y="640" width="120" height="60" as="geometry" />
        </mxCell>
        <mxCell id="VIOyXhXL2G6A2-tZGu9I-59" value="" style="endArrow=block;endSize=16;endFill=0;html=1;rounded=0;exitX=0.5;exitY=0;exitDx=0;exitDy=0;entryX=0.833;entryY=0.964;entryDx=0;entryDy=0;entryPerimeter=0;" edge="1" parent="1" source="VIOyXhXL2G6A2-tZGu9I-58" target="VIOyXhXL2G6A2-tZGu9I-57">
          <mxGeometry width="160" relative="1" as="geometry">
            <mxPoint x="620" y="500" as="sourcePoint" />
            <mxPoint x="780" y="500" as="targetPoint" />
          </mxGeometry>
        </mxCell>
        <mxCell id="VIOyXhXL2G6A2-tZGu9I-60" value="Surgical&lt;div&gt;Technologist&lt;/div&gt;" style="rounded=0;whiteSpace=wrap;html=1;" vertex="1" parent="1">
          <mxGeometry x="1110" y="760" width="120" height="60" as="geometry" />
        </mxCell>
        <mxCell id="VIOyXhXL2G6A2-tZGu9I-61" value="" style="endArrow=block;endSize=16;endFill=0;html=1;rounded=0;exitX=0.5;exitY=0;exitDx=0;exitDy=0;entryX=0.5;entryY=1;entryDx=0;entryDy=0;" edge="1" parent="1" source="VIOyXhXL2G6A2-tZGu9I-60" target="VIOyXhXL2G6A2-tZGu9I-58">
          <mxGeometry width="160" relative="1" as="geometry">
            <mxPoint x="1150" y="730" as="sourcePoint" />
            <mxPoint x="1310" y="730" as="targetPoint" />
          </mxGeometry>
        </mxCell>
        <mxCell id="VIOyXhXL2G6A2-tZGu9I-62" value="" style="endArrow=block;endSize=16;endFill=0;html=1;rounded=0;exitX=0.5;exitY=0;exitDx=0;exitDy=0;entryX=0.5;entryY=1;entryDx=0;entryDy=0;" edge="1" parent="1" source="VIOyXhXL2G6A2-tZGu9I-37" target="VIOyXhXL2G6A2-tZGu9I-34">
          <mxGeometry width="160" relative="1" as="geometry">
            <mxPoint x="620" y="500" as="sourcePoint" />
            <mxPoint x="780" y="500" as="targetPoint" />
          </mxGeometry>
        </mxCell>
        <mxCell id="VIOyXhXL2G6A2-tZGu9I-64" value="" style="endArrow=block;endSize=16;endFill=0;html=1;rounded=0;entryX=1;entryY=0.75;entryDx=0;entryDy=0;" edge="1" parent="1" target="VIOyXhXL2G6A2-tZGu9I-45">
          <mxGeometry width="160" relative="1" as="geometry">
            <mxPoint x="1040" y="520" as="sourcePoint" />
            <mxPoint x="1030" y="430" as="targetPoint" />
          </mxGeometry>
        </mxCell>
        <mxCell id="VIOyXhXL2G6A2-tZGu9I-65" value="Departament" style="rounded=0;whiteSpace=wrap;html=1;" vertex="1" parent="1">
          <mxGeometry x="470" y="230" width="120" height="60" as="geometry" />
        </mxCell>
        <mxCell id="VIOyXhXL2G6A2-tZGu9I-66" value="" style="endArrow=diamondThin;endFill=0;endSize=24;html=1;rounded=0;exitX=0.5;exitY=0;exitDx=0;exitDy=0;" edge="1" parent="1" source="VIOyXhXL2G6A2-tZGu9I-65" target="VIOyXhXL2G6A2-tZGu9I-20">
          <mxGeometry width="160" relative="1" as="geometry">
            <mxPoint x="530" y="210" as="sourcePoint" />
            <mxPoint x="690" y="210" as="targetPoint" />
          </mxGeometry>
        </mxCell>
        <mxCell id="VIOyXhXL2G6A2-tZGu9I-68" value="" style="endArrow=diamondThin;endFill=0;endSize=24;html=1;rounded=0;exitX=0.5;exitY=0;exitDx=0;exitDy=0;" edge="1" parent="1" source="VIOyXhXL2G6A2-tZGu9I-45" target="VIOyXhXL2G6A2-tZGu9I-65">
          <mxGeometry width="160" relative="1" as="geometry">
            <mxPoint x="550" y="310" as="sourcePoint" />
            <mxPoint x="710" y="310" as="targetPoint" />
          </mxGeometry>
        </mxCell>
        <mxCell id="VIOyXhXL2G6A2-tZGu9I-69" value="" style="shape=waypoint;sketch=0;fillStyle=solid;size=6;pointerEvents=1;points=[];fillColor=none;resizable=0;rotatable=0;perimeter=centerPerimeter;snapToPoint=1;" vertex="1" parent="1">
          <mxGeometry x="500" y="320" width="20" height="20" as="geometry" />
        </mxCell>
        <mxCell id="VIOyXhXL2G6A2-tZGu9I-70" value="1" style="text;html=1;align=center;verticalAlign=middle;resizable=0;points=[];autosize=1;strokeColor=none;fillColor=none;" vertex="1" parent="1">
          <mxGeometry x="495" y="290" width="30" height="30" as="geometry" />
        </mxCell>
        <mxCell id="VIOyXhXL2G6A2-tZGu9I-73" value="1" style="text;html=1;align=center;verticalAlign=middle;resizable=0;points=[];autosize=1;strokeColor=none;fillColor=none;" vertex="1" parent="1">
          <mxGeometry x="530" y="190" width="30" height="30" as="geometry" />
        </mxCell>
        <mxCell id="VIOyXhXL2G6A2-tZGu9I-74" value="" style="shape=waypoint;sketch=0;fillStyle=solid;size=6;pointerEvents=1;points=[];fillColor=none;resizable=0;rotatable=0;perimeter=centerPerimeter;snapToPoint=1;" vertex="1" parent="1">
          <mxGeometry x="505" y="210" width="20" height="20" as="geometry" />
        </mxCell>
        <mxCell id="VIOyXhXL2G6A2-tZGu9I-77" value="" style="endArrow=none;html=1;rounded=0;" edge="1" parent="1" target="VIOyXhXL2G6A2-tZGu9I-29">
          <mxGeometry width="50" height="50" relative="1" as="geometry">
            <mxPoint x="188" y="540" as="sourcePoint" />
            <mxPoint x="190" y="455" as="targetPoint" />
          </mxGeometry>
        </mxCell>
        <mxCell id="VIOyXhXL2G6A2-tZGu9I-78" value="" style="endArrow=none;html=1;rounded=0;entryX=0;entryY=0.667;entryDx=0;entryDy=0;entryPerimeter=0;" edge="1" parent="1" target="VIOyXhXL2G6A2-tZGu9I-33">
          <mxGeometry width="50" height="50" relative="1" as="geometry">
            <mxPoint x="190" y="540" as="sourcePoint" />
            <mxPoint x="250" y="540" as="targetPoint" />
          </mxGeometry>
        </mxCell>
        <mxCell id="VIOyXhXL2G6A2-tZGu9I-79" value="" style="shape=waypoint;sketch=0;fillStyle=solid;size=6;pointerEvents=1;points=[];fillColor=none;resizable=0;rotatable=0;perimeter=centerPerimeter;snapToPoint=1;" vertex="1" parent="1">
          <mxGeometry x="230" y="540" width="20" height="20" as="geometry" />
        </mxCell>
        <mxCell id="VIOyXhXL2G6A2-tZGu9I-80" value="" style="shape=waypoint;sketch=0;fillStyle=solid;size=6;pointerEvents=1;points=[];fillColor=none;resizable=0;rotatable=0;perimeter=centerPerimeter;snapToPoint=1;" vertex="1" parent="1">
          <mxGeometry x="160" y="455" width="20" height="20" as="geometry" />
        </mxCell>
      </root>
    </mxGraphModel>
  </diagram>
</mxfile>
